<?xml version="1.0" encoding="UTF-8"?>
<svg version="1.1" xmlns="http://www.w3.org/2000/svg" width="512" height="512">
<path d="M0 0 C1.29550781 0.78189697 1.29550781 0.78189697 2.6171875 1.57958984 C3.53113281 2.1176123 4.44507813 2.65563477 5.38671875 3.20996094 C45.2199243 26.94437618 86.20310606 60.61870395 98.5546875 107.20458984 C101.13886431 117.79069402 102.1896534 128.33341808 102.5546875 139.20458984 C102.6165625 140.69152344 102.6165625 140.69152344 102.6796875 142.20849609 C103.06420976 159.48796517 101.00140658 178.07600162 92.5078125 193.34912109 C91.40237922 195.15343232 91.40237922 195.15343232 91.5546875 197.20458984 C92.09657715 197.44991455 92.6384668 197.69523926 93.19677734 197.94799805 C115.10238741 207.93675328 134.99648293 219.55641417 152.5546875 236.20458984 C153.0290625 236.64641602 153.5034375 237.08824219 153.9921875 237.54345703 C186.038073 267.52388507 195.70130295 308.27448548 197.45263672 350.78515625 C198.26669685 378.06201306 190.87650067 401.14442287 171.9296875 421.32958984 C154.97843148 437.68378784 132.91082789 445.36495381 109.63952637 445.34503174 C108.54973685 445.34800286 107.45994733 445.35097398 106.33713388 445.35403514 C102.6902429 445.36269743 99.04338483 445.36422831 95.39648438 445.36572266 C92.77942841 445.37035263 90.16237311 445.37537754 87.5453186 445.38076782 C80.43751632 445.39432093 73.32971971 445.40037141 66.22190666 445.40477848 C61.7778855 445.40754655 57.3338665 445.41178498 52.8898468 445.41628265 C40.56935513 445.42847238 28.24886518 445.43877162 15.92836761 445.44215775 C15.14056708 445.44237731 14.35276654 445.44259688 13.54109326 445.4428231 C12.75147579 445.44304137 11.96185832 445.44325965 11.14831305 445.44348454 C9.54841963 445.443928 7.94852622 445.44437456 6.34863281 445.44482422 C5.15824542 445.44515636 5.15824542 445.44515636 3.94380981 445.44549522 C-8.90109256 445.4494391 -21.74593805 445.46688194 -34.59081846 445.49018374 C-47.79982971 445.51395127 -61.00881248 445.52636208 -74.21784544 445.52752566 C-81.62553221 445.5284395 -89.0331449 445.53411782 -96.44081116 445.55234528 C-102.75153072 445.56781951 -109.06215331 445.57282396 -115.37288827 445.56460717 C-118.58695144 445.56072609 -121.80078095 445.5631689 -125.01482773 445.57566452 C-154.41944386 445.68322586 -178.67367545 440.27522826 -200.6328125 419.32958984 C-216.97814976 402.36188504 -224.73928835 379.75790651 -224.4296875 356.43896484 C-224.3624993 353.94385468 -224.28391593 351.44903135 -224.1953125 348.95458984 C-224.17231079 348.29840668 -224.14930908 347.64222351 -224.12561035 346.96615601 C-222.44394445 301.08933723 -208.32986478 262.7880763 -174.58105469 231.12890625 C-159.32070164 217.37923744 -137.89267789 203.68704497 -118.4453125 197.20458984 C-119.70290817 193.25794167 -121.16758254 189.53418369 -122.8828125 185.76708984 C-127.35411208 175.12302271 -128.95359309 163.68316479 -129.4453125 152.20458984 C-129.4865625 151.27259766 -129.5278125 150.34060547 -129.5703125 149.38037109 C-130.45788274 106.9434192 -115.46646762 75.18567171 -87.0078125 44.58349609 C-81.55079451 38.96081863 -75.5696644 34.07782414 -69.4453125 29.20458984 C-68.66671875 28.55876953 -67.888125 27.91294922 -67.0859375 27.24755859 C-55.02717266 17.31324058 -41.88583003 8.90796985 -28.29003906 1.25 C-26.67098256 0.33247751 -25.06839114 -0.61397364 -23.46875 -1.56494141 C-22.63601562 -2.03287109 -21.80328125 -2.50080078 -20.9453125 -2.98291016 C-20.275 -3.36833984 -19.6046875 -3.75376953 -18.9140625 -4.15087891 C-11.90237772 -5.98146117 -6.04386443 -3.47941271 0 0 Z " fill="#000000" transform="translate(269.4453125,35.79541015625)"/>
<path d="M0 0 C73.92 0 147.84 0 224 0 C224 45.54 224 91.08 224 138 C150.08 138 76.16 138 0 138 C0 92.46 0 46.92 0 0 Z " fill="#D4D4D4" transform="translate(144,290)"/>
<path d="M0 0 C1.03511719 0.51175781 2.07023437 1.02351562 3.13671875 1.55078125 C4.30847656 2.13214844 5.48023438 2.71351563 6.6875 3.3125 C31.2746396 14.9235141 57.86581577 15.26847898 84.5625 15.3125 C85.64136475 15.31617584 86.72022949 15.31985168 87.83178711 15.32363892 C113.30008797 15.36887268 142.48332329 14.47250602 164.9375 1 C170.27959169 -1.98087412 170.27959169 -1.98087412 173.20703125 -2.05859375 C175.67255528 -1.30903673 177.72829776 -0.22427067 180 1 C181.24093879 1.56068995 182.48616607 2.11193689 183.734375 2.65625 C219.70294309 18.555796 250.4696565 43.0592685 265.62109375 80.1328125 C275.14301113 105.87900041 280.47935863 144.17938595 270 170 C269.59910156 171.03382813 269.19820313 172.06765625 268.78515625 173.1328125 C265.07681804 181.5383791 259.44288113 187.62363829 253 194 C252.41476562 194.60714844 251.82953125 195.21429688 251.2265625 195.83984375 C242.34660642 204.33665452 228.15985242 210.10908959 216 210 C215.79641679 203.16865217 215.65675548 196.33809167 215.56054688 189.50439453 C215.52042462 187.18215708 215.46591134 184.86012036 215.39648438 182.53857422 C215.29893817 179.19187854 215.25396032 175.84786249 215.21875 172.5 C215.17745972 171.4694751 215.13616943 170.4389502 215.09362793 169.37719727 C215.09010964 163.66865297 215.72070581 160.62838976 219.80664062 156.49609375 C221.18147155 155.30373411 222.57913941 154.13711776 224 153 C225.29495334 151.85788238 226.58711773 150.71258524 227.875 149.5625 C228.52855469 149.00046875 229.18210937 148.4384375 229.85546875 147.859375 C233.15481095 144.99874314 236.3751375 142.05136928 239.60546875 139.11328125 C241.26968012 137.64454005 242.9784508 136.22539312 244.71875 134.84765625 C248.05895135 132.14232194 248.81063611 130.27144328 249.4375 126.0625 C249.21189172 122.84541895 249.21189172 122.84541895 247 120.125 C244.00417332 118.0029561 242.01750552 117.02273079 238.3046875 117.25390625 C233.00804523 118.96858197 229.0294317 123.30927416 225 127 C223.46093895 128.35712732 221.9195935 129.71167271 220.375 131.0625 C219.74335938 131.63097656 219.11171875 132.19945312 218.4609375 132.78515625 C217 134 217 134 216 134 C215.99120064 132.02469048 215.99120064 132.02469048 215.98222351 130.00947571 C215.92503526 117.60520189 215.85229387 105.20110404 215.76428509 92.79700947 C215.71953871 86.4197802 215.68029182 80.04261546 215.65356445 73.6652832 C215.62757434 67.51194817 215.58720193 61.35886086 215.53681374 55.20567894 C215.52011604 52.85695665 215.50861989 50.50819148 215.50238609 48.15941811 C215.49277682 44.87204583 215.46475452 41.5853115 215.43237305 38.2980957 C215.43452568 36.83829285 215.43452568 36.83829285 215.4367218 35.34899902 C215.36842287 30.45311765 215.27353224 26.93089565 212 23 C209.69530089 21.84765045 208.39339613 21.87179227 205.8295002 21.86577892 C204.95016921 21.86132108 204.07083822 21.85686324 203.16486084 21.85227031 C202.19289604 21.85245467 201.22093123 21.85263903 200.21951294 21.85282898 C199.19157116 21.84915229 198.16362938 21.8454756 197.10453784 21.8416875 C193.63755803 21.83061686 190.17060815 21.82680113 186.70361328 21.82299805 C184.22708032 21.81673606 181.75054831 21.8100895 179.27401733 21.80308533 C171.82649355 21.78383418 164.37897772 21.77325443 156.93143636 21.76435754 C153.42633463 21.75997636 149.92123441 21.75460916 146.41613388 21.74936867 C134.76836778 21.73235671 123.12060262 21.71786131 111.472826 21.71061993 C108.44949467 21.70870996 105.42616334 21.70678964 102.40283203 21.70483398 C101.65137735 21.70435024 100.89992268 21.7038665 100.12569664 21.7033681 C87.94554324 21.69506317 75.76548791 21.66971834 63.58537735 21.63725331 C51.08735558 21.60421175 38.5893837 21.58617386 26.09131801 21.58297569 C19.07120424 21.58080803 12.05123354 21.57202214 5.03116226 21.54651451 C-1.56960963 21.52258608 -8.17016979 21.51896352 -14.77099228 21.52927589 C-17.19783382 21.52977357 -19.62468767 21.52338538 -22.05149078 21.50971985 C-25.3564897 21.49214573 -28.66054774 21.49903596 -31.96554565 21.51225281 C-32.93304902 21.50128356 -33.90055238 21.49031432 -34.89737403 21.47901267 C-40.10150256 21.47076294 -40.10150256 21.47076294 -44.5646534 23.9054842 C-46.64634472 26.94317235 -47.12810446 28.62519578 -47.15821838 32.26467896 C-47.17290161 33.60665344 -47.17290161 33.60665344 -47.18788147 34.97573853 C-47.19363693 35.95972626 -47.1993924 36.94371399 -47.20532227 37.95751953 C-47.21522186 38.99169006 -47.22512146 40.0258606 -47.23532104 41.09136963 C-47.26699838 44.52182701 -47.29171811 47.95229827 -47.31640625 51.3828125 C-47.33697039 53.75650398 -47.35796672 56.13019175 -47.37937927 58.50387573 C-47.43465567 64.76085412 -47.48404037 71.01786587 -47.53222656 77.27490234 C-47.58240098 83.65595478 -47.6381082 90.03695861 -47.69335938 96.41796875 C-47.80100904 108.94527072 -47.90262662 121.47261416 -48 134 C-49.27399584 133.05389797 -50.54669296 132.10604695 -51.81884766 131.1574707 C-52.52772125 130.6298262 -53.23659485 130.1021817 -53.96694946 129.55854797 C-56.56528458 127.56664967 -58.97335666 125.41110353 -61.375 123.1875 C-65.71212987 119.17934748 -67.83106099 117.56698267 -73.95703125 117.65625 C-76.32247523 117.90208981 -76.32247523 117.90208981 -79 120.125 C-81.17488465 122.83591454 -81.17488465 122.83591454 -81.5625 125.9375 C-80.37799836 132.38645336 -76.13519342 135.97931578 -71.33984375 140.015625 C-68.66715919 142.28227568 -66.08489143 144.63380258 -63.5 147 C-59.56209138 150.59286239 -55.59044542 154.13799315 -51.55859375 157.625 C-48.03000237 160.73794277 -48.03000237 160.73794277 -47.75949097 163.10073853 C-47.7661528 164.3997963 -47.7661528 164.3997963 -47.77294922 165.72509766 C-47.77310028 166.70596344 -47.77325134 167.68682922 -47.77340698 168.69741821 C-47.78372955 169.75891083 -47.79405212 170.82040344 -47.8046875 171.9140625 C-47.8075174 172.99883881 -47.81034729 174.08361511 -47.81326294 175.20126343 C-47.82448422 178.67595313 -47.84959238 182.15038782 -47.875 185.625 C-47.88502728 187.97655879 -47.89415357 190.3281216 -47.90234375 192.6796875 C-47.92442989 198.45321244 -47.95792655 204.22658801 -48 210 C-62.49386174 210.18133327 -75.31255747 203.17555945 -85.65234375 193.34375 C-86.42707031 192.5703125 -87.20179687 191.796875 -88 191 C-88.72316406 190.2884375 -89.44632813 189.576875 -90.19140625 188.84375 C-105.95094511 172.33660493 -106.81738013 151.39494906 -106.32421875 129.890625 C-106.03555714 120.10076332 -104.90733616 110.59834037 -103 101 C-102.86078125 100.25266602 -102.7215625 99.50533203 -102.578125 98.73535156 C-98.84095216 79.00273291 -90.09726796 61.25158494 -77 46 C-76.30003906 45.16597656 -75.60007812 44.33195312 -74.87890625 43.47265625 C-59.09543031 25.21334095 -36.88189675 12.42961112 -15.25 2.25 C-13.83859741 1.56756226 -13.83859741 1.56756226 -12.39868164 0.87133789 C-11.50914795 0.46520264 -10.61961426 0.05906738 -9.703125 -0.359375 C-8.52218262 -0.90803223 -8.52218262 -0.90803223 -7.31738281 -1.46777344 C-4.24547097 -2.17329049 -2.77943125 -1.38787943 0 0 Z " fill="#6E6E6E" transform="translate(172,250)"/>
<path d="M0 0 C12.31866306 9.3045221 20.59148629 21.98629909 23.4453125 37.25390625 C24.83468386 51.99586766 22.21096268 66.95621468 13.4453125 79.25390625 C12.39485971 80.39016335 11.33227462 81.51532536 10.2578125 82.62890625 C6.92764691 86.27180313 6.65318683 89.77516099 5.98046875 94.54296875 C4.583408 101.6200502 0.18192083 105.93191879 -5.4921875 110.02734375 C-10.97443034 113.28761695 -15.63508464 113.58613418 -21.87890625 113.625 C-22.78034866 113.63402847 -23.68179108 113.64305695 -24.61054993 113.65235901 C-26.51596775 113.6668396 -28.42143505 113.67574279 -30.3269043 113.67944336 C-33.21555454 113.69129696 -36.10203719 113.74046663 -38.99023438 113.79101562 C-58.51689183 113.96386849 -58.51689183 113.96386849 -66.4296875 106.48071289 C-70.73177966 101.89831254 -73.53284943 97.22904358 -73.8046875 90.87890625 C-74.20504465 85.96023269 -76.30956091 83.98360066 -79.64453125 80.5390625 C-89.09017571 69.2390584 -91.66528596 53.5703492 -90.76611328 39.3125 C-89.34735571 25.498454 -81.72912535 12.44946233 -71.5546875 3.25390625 C-49.83506219 -13.67013207 -23.1556827 -15.82659047 0 0 Z " fill="#020101" transform="translate(289.5546875,307.74609375)"/>
<path d="M0 0 C2.86881223 1.40299576 5.55102838 3.04634783 8.25 4.75 C9.02923828 5.2351709 9.80847656 5.7203418 10.61132812 6.22021484 C23.20188799 14.16882611 35.17534201 22.76209917 46 33 C47.34912936 34.17248814 48.7031458 35.33938179 50.0625 36.5 C65.66668943 50.19666327 80.9788838 68.68738387 87 89 C86.67 89.66 86.34 90.32 86 91 C85.01773438 90.34644531 85.01773438 90.34644531 84.015625 89.6796875 C57.05873068 72.08917172 27.8074726 66.34037209 -4 66.5 C-4.92866882 66.50143005 -5.85733765 66.50286011 -6.81414795 66.5043335 C-38.59945847 66.62476075 -68.2738603 73.18257353 -95 91 C-90.30963189 71.21111361 -76.81920917 55.27197529 -63 41 C-62.04480469 39.98486328 -62.04480469 39.98486328 -61.0703125 38.94921875 C-56.13303903 33.81114707 -50.5988391 29.39101832 -45 25 C-44.12359863 24.30898193 -44.12359863 24.30898193 -43.22949219 23.60400391 C-33.53209447 16.00423417 -23.47228017 9.27989793 -12.81884766 3.08935547 C-11.28723118 2.17203027 -9.81287584 1.16007021 -8.35546875 0.12890625 C-5.04196772 -1.45915643 -3.50478681 -1.07708083 0 0 Z " fill="#6F6F6F" transform="translate(260,54)"/>
<path d="M0 0 C8.03388991 5.88075359 14.14251139 13.65588011 16.45703125 23.45703125 C17.69556019 34.63851683 16.65503053 44.54153111 9.671875 53.83203125 C8.51779228 55.16498454 7.33261286 56.47226832 6.10546875 57.73828125 C2.50111591 61.49637426 1.1555169 63.59621614 1.08203125 68.89453125 C0.80954653 72.89097374 0.60587267 74.24014804 -1.73046875 77.64453125 C-5.02017995 79.76456736 -6.71878477 79.61042176 -10.54296875 79.45703125 C-10.55714844 78.50441406 -10.57132812 77.55179687 -10.5859375 76.5703125 C-10.75818434 68.96000356 -10.75818434 68.96000356 -13.60546875 62.08203125 C-17.45275559 59.95374491 -20.2533608 59.45178979 -24.54296875 60.45703125 C-27.76555588 61.92372101 -27.76555588 61.92372101 -29.54296875 65.45703125 C-30.25105765 70.12302007 -30.47278128 74.74170941 -30.54296875 79.45703125 C-36.19140625 79.68359375 -36.19140625 79.68359375 -39.35546875 77.64453125 C-41.73105556 74.1829619 -41.74186103 73.27864776 -41.79296875 69.26953125 C-42.0651973 62.91469605 -44.87929553 60.36156272 -49.24609375 56.015625 C-57.01898268 47.35704975 -58.23458606 36.53516841 -57.72216797 25.41748047 C-56.93535612 16.80971594 -51.65156578 9.19075629 -45.40234375 3.51171875 C-32.10579602 -7.29737958 -14.96402456 -9.07955407 0 0 Z " fill="#BC0310" transform="translate(276.54296875,322.54296875)"/>
<path d="M0 0 C73.92 0 147.84 0 224 0 C224 4.29 224 8.58 224 13 C150.08 13 76.16 13 0 13 C0 8.71 0 4.42 0 0 Z " fill="#D2D2D2" transform="translate(144,448)"/>
<path d="M0 0 C0.66 0 1.32 0 2 0 C2.93812468 1.44069147 3.87375925 2.8831045 4.79296875 4.3359375 C7.42610066 7.96608053 10.73239311 10.57746437 15 12 C17.65606301 12.15346953 20.29095095 12.25717898 22.94921875 12.31640625 C23.72183548 12.33718735 24.49445221 12.35796844 25.29048157 12.37937927 C27.7560648 12.44471038 30.22175361 12.50368315 32.6875 12.5625 C34.36003691 12.60570087 36.03256319 12.64931566 37.70507812 12.69335938 C41.8032775 12.8003749 45.90158296 12.90168857 50 13 C44.70592169 26.59167789 34.79252962 38.84227509 22 46 C18.3953608 47.57223625 14.76863354 48.88024626 11 50 C10.36964844 50.19207031 9.73929687 50.38414062 9.08984375 50.58203125 C-3.08965783 53.01793157 -13.32550499 49.97004371 -23.6875 43.75 C-33.63831666 37.04095081 -45.43885329 25.22009022 -48 13 C-47.01193359 12.9906543 -46.02386719 12.98130859 -45.00585938 12.97167969 C-41.30782499 12.93153064 -37.61060095 12.86570606 -33.91308594 12.79248047 C-32.31879153 12.76441418 -30.72436168 12.74312887 -29.12988281 12.72900391 C-15.7382259 12.95077783 -15.7382259 12.95077783 -4.46704102 6.48291016 C-2.69427543 4.45345871 -1.20647429 2.41294858 0 0 Z " fill="#D1D1D1" transform="translate(255,183)"/>
<path d="M0 0 C0.22042969 1.38445312 0.22042969 1.38445312 0.4453125 2.796875 C5.19753299 31.06724939 15.83427637 61.00470974 39.9375 78.5 C40.85402344 79.1290625 41.77054688 79.758125 42.71484375 80.40625 C45 82 45 82 47 84 C29.35099035 83.65145582 8.74007048 79.05080391 -4 66 C-14.60004155 52.79691027 -17.4663385 35.5008322 -16.29443359 18.94628906 C-15.62768179 14.53887165 -13.22826245 11.8619348 -10 9 C-9.13375 8.0925 -8.2675 7.185 -7.375 6.25 C-6.59125 5.5075 -5.8075 4.765 -5 4 C-4.2575 3.236875 -3.515 2.47375 -2.75 1.6875 C-1 0 -1 0 0 0 Z " fill="#6E6E6E" transform="translate(177,161)"/>
<path d="M0 0 C6.38928331 2.97896964 12.80969235 9.61938469 16 16 C17.66471232 32.26992886 15.65399075 48.99045917 6.06640625 62.63671875 C-7.00138744 77.58192704 -27.28938949 81.00451456 -46 83 C-43.12613996 80.00555842 -40.09515032 77.47172499 -36.8125 74.9375 C-14.8782985 57.02311232 -3.54855711 27.48807668 0 0 Z " fill="#6E6E6E" transform="translate(335,162)"/>
<path d="M0 0 C1.25554687 -0.00128906 2.51109375 -0.00257813 3.8046875 -0.00390625 C4.46178711 -0.00181152 5.11888672 0.0002832 5.79589844 0.00244141 C7.80411335 0.00779016 9.81210459 0.00249559 11.8203125 -0.00390625 C13.07585937 -0.00261719 14.33140625 -0.00132812 15.625 0 C16.78644531 0.00112793 17.94789063 0.00225586 19.14453125 0.00341797 C21.8125 0.1328125 21.8125 0.1328125 22.8125 1.1328125 C22.91110131 2.53629985 22.94328937 3.94461727 22.9453125 5.3515625 C22.94724609 6.62580078 22.94724609 6.62580078 22.94921875 7.92578125 C22.94535156 8.81910156 22.94148438 9.71242187 22.9375 10.6328125 C22.94330078 11.97279297 22.94330078 11.97279297 22.94921875 13.33984375 C22.94792969 14.18933594 22.94664062 15.03882813 22.9453125 15.9140625 C22.94418457 16.69845703 22.94305664 17.48285156 22.94189453 18.29101562 C22.8125 20.1328125 22.8125 20.1328125 21.8125 21.1328125 C19.66691173 21.22056855 17.51845579 21.23976469 15.37109375 21.23046875 C14.06591797 21.22724609 12.76074219 21.22402344 11.41601562 21.22070312 C10.0273431 21.21234651 8.63867123 21.20388155 7.25 21.1953125 C5.85742344 21.19029916 4.46484519 21.18573597 3.07226562 21.18164062 C-0.3476987 21.16980684 -3.76757844 21.1533213 -7.1875 21.1328125 C-7.21638146 17.82033063 -7.23425799 14.50788083 -7.25 11.1953125 C-7.25837891 10.24978516 -7.26675781 9.30425781 -7.27539062 8.33007812 C-7.27861328 7.43095703 -7.28183594 6.53183594 -7.28515625 5.60546875 C-7.29039307 4.77281494 -7.29562988 3.94016113 -7.30102539 3.08227539 C-7.05065124 -1.21716023 -3.53922177 0.00343709 0 0 Z " fill="#6B6B6B" transform="translate(215.1875,155.8671875)"/>
<path d="M0 0 C1.25554687 -0.00128906 2.51109375 -0.00257813 3.8046875 -0.00390625 C4.46178711 -0.00181152 5.11888672 0.0002832 5.79589844 0.00244141 C7.80411335 0.00779016 9.81210459 0.00249559 11.8203125 -0.00390625 C13.07585937 -0.00261719 14.33140625 -0.00132812 15.625 0 C16.78644531 0.00112793 17.94789063 0.00225586 19.14453125 0.00341797 C21.8125 0.1328125 21.8125 0.1328125 22.8125 1.1328125 C22.91110131 2.53629985 22.94328937 3.94461727 22.9453125 5.3515625 C22.94724609 6.62580078 22.94724609 6.62580078 22.94921875 7.92578125 C22.94535156 8.81910156 22.94148438 9.71242187 22.9375 10.6328125 C22.94330078 11.97279297 22.94330078 11.97279297 22.94921875 13.33984375 C22.94792969 14.18933594 22.94664062 15.03882813 22.9453125 15.9140625 C22.94418457 16.69845703 22.94305664 17.48285156 22.94189453 18.29101562 C22.8125 20.1328125 22.8125 20.1328125 21.8125 21.1328125 C19.7519469 21.23274782 17.6879741 21.26362156 15.625 21.265625 C14.36945313 21.26691406 13.11390625 21.26820313 11.8203125 21.26953125 C11.16321289 21.26743652 10.50611328 21.2653418 9.82910156 21.26318359 C7.82088665 21.25783484 5.81289541 21.26312941 3.8046875 21.26953125 C2.54914063 21.26824219 1.29359375 21.26695312 0 21.265625 C-1.16144531 21.26449707 -2.32289063 21.26336914 -3.51953125 21.26220703 C-6.1875 21.1328125 -6.1875 21.1328125 -7.1875 20.1328125 C-7.28610131 18.72932515 -7.31828937 17.32100773 -7.3203125 15.9140625 C-7.32160156 15.06457031 -7.32289063 14.21507812 -7.32421875 13.33984375 C-7.32035156 12.44652344 -7.31648438 11.55320313 -7.3125 10.6328125 C-7.31636719 9.73949219 -7.32023437 8.84617188 -7.32421875 7.92578125 C-7.32292969 7.07628906 -7.32164062 6.22679687 -7.3203125 5.3515625 C-7.31918457 4.56716797 -7.31805664 3.78277344 -7.31689453 2.97460938 C-7.0226386 -1.21381842 -3.41878686 0.00332013 0 0 Z " fill="#6B6B6B" transform="translate(281.1875,155.8671875)"/>
<path d="M0 0 C3.71821171 2.10159792 4.77303056 3.27903826 6.0625 7.375 C5.98519328 11.85878991 4.8987453 13.63118789 2 17 C-0.64014707 19.09390974 -2.01175464 19 -5.4375 19 C-10.0516797 17.70479166 -11.48877431 16.03318066 -14 12 C-14.66026381 8.8307337 -14.69114546 7.09007869 -12.9375 4.32421875 C-8.67508764 -0.99111095 -6.58240496 -1.45036042 0 0 Z " fill="#080000" transform="translate(242,349)"/>
<path d="M0 0 C2.70446521 1.76691727 3.35621396 3.04118514 5 6 C5.66026381 9.1692663 5.69114546 10.90992131 3.9375 13.67578125 C1.24909911 17.02828117 -0.48272717 18.79309916 -4.75 19.375 C-8.25285375 18.97082457 -10.20131159 18.03769712 -12.7890625 15.62109375 C-15.03985474 12.60793639 -15.51773428 9.68885672 -15 6 C-11.63450888 -0.4988794 -7.07117257 -1.73881293 0 0 Z " fill="#080000" transform="translate(279,349)"/>
<path d="M0 0 C5.94 0 11.88 0 18 0 C16.50260417 1.69270833 15.00520833 3.38541667 13.5078125 5.078125 C12.0202513 6.97418746 10.99677564 8.81290005 10 11 C9.34 11 8.68 11 8 11 C6.66666667 9 5.33333333 7 4 5 C2.68441297 3.97676564 1.35622245 2.96873032 0 2 C0 1.34 0 0.68 0 0 Z " fill="#B7B7B7" transform="translate(247,139)"/>
</svg>
